# AST/ASF file generated using VICON BodyLanguage
# -----------------------------------------------
:version 1.10
:name VICON
:units
  mass 1.0
  length 0.45
  angle deg
:documentation
   .ast/.asf automatically generated from VICON data using
   VICON BodyBuilder and BodyLanguage model FoxedUp or BRILLIANT.MOD
:root
   order TX TY TZ RX RY RZ
   axis XYZ
   position 0 0 0  
   orientation 0 0 0 
:bonedata
  begin
     id 1 
     name lhipjoint
     direction 0.603808 -0.713975 0.35448 
     length 2.2025 
     axis 0 0 0  XYZ
  end
  begin
     id 2 
     name lfemur
     direction 0.34202 -0.939693 0  
     length 6.55877  
     axis 0 0 20  XYZ
    dof rx ry rz
    limits (-160.0 20.0)
           (-70.0 70.0)
           (-60.0 70.0)
  end
  begin
     id 3 
     name ltibia
     direction 0.34202 -0.939693 0   
     length 6.80302   
     axis 0 0 20   XYZ
    dof rx
    limits (-10.0 170.0)
  end
  begin
     id 4 
     name lfoot
     direction 0.091848 -0.25235 0.963267   
     length 2.03446   
     axis -90 7.62852e-016 20   XYZ
    dof rx rz
    limits (-45.0 90.0)
           (-70.0 20.0)
  end
  begin
     id 5 
     name ltoes
     direction 1.53608e-011 -4.21925e-011 1   
     length 1.02033   
     axis -90 7.62852e-016 20   XYZ
    dof rx
    limits (-90.0 20.0)
  end
  begin
     id 6 
     name rhipjoint
     direction -0.587285 -0.724947 0.359928   
     length 2.16916  
     axis 0 0 0  XYZ 
  end
  begin
     id 7 
     name rfemur
     direction -0.34202 -0.939693 0   
     length 6.43173   
     axis 0 0 -20   XYZ
    dof rx ry rz
    limits (-160.0 20.0)
           (-70.0 70.0)
           (-70.0 60.0)
  end
  begin
     id 8 
     name rtibia
     direction -0.34202 -0.939693 0   
     length 6.70662   
     axis 0 0 -20   XYZ
    dof rx
    limits (-10.0 170.0)
 end
 begin
     id 9 
     name rfoot
     direction -0.11854 -0.325686 0.938018   
     length 2.0773  
     axis -90 -7.62852e-016 -20   XYZ
    dof rx rz
    limits (-45.0 90.0)
           (-20.0 70.0)
  end
  begin
     id 10 
     name rtoes
     direction -1.53547e-011 -4.21838e-011 1   
     length 1.03267   
     axis -90 -7.62852e-016 -20   XYZ
    dof rx
    limits (-90.0 20.0)
  end
  begin
     id 11 
     name lowerback
     direction -0.0286554 0.999539 0.0100613   
     length 2.08751   
     axis 0 0 0   XYZ
    dof rx ry rz
    limits (-20.0 45.0)
           (-30.0 30.0)
           (-30.0 30.0)
  end
  begin
     id 12 
     name upperback
     direction 0.0227093 0.999705 -0.00860929   
     length 2.08517   
     axis 0 0 0   XYZ
    dof rx ry rz
    limits (-20.0 45.0)
           (-30.0 30.0)
           (-30.0 30.0)
  end
  begin
     id 13 
     name thorax
     direction 0.0351627 0.999285 -0.013892   
     length 2.08412   
     axis 0 0 0   XYZ
    dof rx ry rz
    limits (-20.0 45.0)
           (-30.0 30.0)
           (-30.0 30.0)
  end
  begin
     id 14 
     name lowerneck
     direction -0.0696283 0.997344 0.0213922   
     length 1.44164   
     axis 0 0 0   XYZ
    dof rx ry rz
    limits (-20.0 45.0)
           (-30.0 30.0)
           (-30.0 30.0)
  end
  begin
     id 15 
     name upperneck
     direction 0.0531 0.990412 -0.127531   
     length 1.45022   
     axis 0 0 0   XYZ
    dof rx ry rz
    limits (-20.0 45.0)
           (-30.0 30.0)
           (-30.0 30.0)
  end
  begin
     id 16
     name head
     direction 0.0188154 0.998548 -0.0504727  
     length 1.45845  
     axis 0 0 0   XYZ
    dof rx ry rz
    limits (-20.0 45.0)
           (-30.0 30.0)
           (-30.0 30.0)
  end
  begin
     id 17 
     name lclavicle
     direction 0.961559 0.260051 0.088188  
     length 2.86057  
     axis 0 0 0   XYZ
    dof ry rz
    limits (-20.0 10.0)
           (0.0 20.0)
  end
  begin
     id 18 
     name lhumerus
     direction 1 -4.48959e-011 2.88185e-027   
     length 4.36901   
     axis 180 -30 -90   XYZ
    dof rx ry rz
    limits (-60.0 90.0)
           (-90.0 90.0)
           (-90.0 90.0)
  end
  begin
     id 19
     name lradius
     direction 1 -4.48965e-011 -3.92618e-028   
     length 3.21737   
     axis 180 -30 -90   XYZ
    dof rx
    limits (-10.0 170.0)
  end
  begin
     id 20
     name lwrist
     direction 1 -4.49037e-011 2.57246e-027   
     length 1.60869   
     axis -1.61769e-015 90 90   XYZ
    dof ry
    limits (-180.0 0.0)
 end
  begin
     id 21 
     name lhand
     direction 1 -4.48807e-011 5.12958e-027   
     length 0.564313   
     axis -3.27988e-015 90 90   XYZ
    dof rx rz
    limits (-90.0 90.0)
           (-45.0 45.0)
  end
  begin
     id 22 
     name lfingers
     direction 1 -4.48879e-011 1.02687e-026   
     length 0.454963   
     axis -6.5598e-015 90 90   XYZ
    dof rx
    limits (0.0 90.0)
  end
  begin
     id 23
     name lthumb
     direction 0.707107 -6.3475e-011 0.707107   
     length 0.653239   
     axis -90 45 2.19363e-014   XYZ
    dof rx rz
    limits (-45.0 45.0)
           (-45.0 45.0)
  end
  begin
     id 24 
     name rclavicle
     direction -0.954677 0.253915 0.155304   
     length 3.11497  
     axis 0 0 0   XYZ 
    dof ry rz
    limits (-10.0 20.0)
           (-20.0 0.0)
  end
  begin
     id 25 
     name rhumerus
     direction -1 -4.48958e-011 -8.20169e-028  
     length 4.34118   
     axis 180 30 90   XYZ
    dof rx ry rz
    limits (-90.0 60.0)
           (-90.0 90.0)
           (-90.0 90.0)
  end
  begin
     id 26 
     name rradius
     direction -1 -4.48978e-011 1.5676e-027   
     length 3.09531   
     axis 180 30 90   XYZ
    dof rx
    limits (-10.0 170.0)
  end
  begin
     id 27 
     name rwrist
     direction -1 -4.49001e-011 2.57123e-027   
     length 1.54765   
     axis -1.61769e-015 -90 -90   XYZ
    dof ry
    limits (-180.0 0.0)
  end
  begin
     id 28
     name rhand
     direction -1 -4.48847e-011 5.13225e-027   
     length 0.597446   
     axis -3.27988e-015 -90 -90   XYZ
    dof rx rz
    limits (-90.0 90.0)
           (-45.0 45.0)
  end
  begin
     id 29
     name rfingers
     direction -1 -4.49094e-011 1.02974e-026   
     length 0.481677   
     axis -6.5598e-015 -90 -90   XYZ
    dof rx
    limits (0.0 90.0)
  end
  begin
     id 30
     name rthumb
     direction -0.707107 -6.34859e-011 0.707107   
     length 0.691594   
     axis -90 -45 -2.19363e-014   XYZ
    dof rx rz
    limits (-45.0 45.0)
           (-45.0 45.0)
  end
:hierarchy
  begin
    root lhipjoint rhipjoint lowerback
    lhipjoint lfemur
    lfemur ltibia
    ltibia lfoot
    lfoot ltoes
    rhipjoint rfemur
    rfemur rtibia
    rtibia rfoot
    rfoot rtoes
    lowerback upperback
    upperback thorax
    thorax lowerneck lclavicle rclavicle
    lowerneck upperneck
    upperneck head
    lclavicle lhumerus
    lhumerus lradius
    lradius lwrist
    lwrist lhand lthumb
    lhand lfingers
    rclavicle rhumerus
    rhumerus rradius
    rradius rwrist
    rwrist rhand rthumb
    rhand rfingers
  end

#!OML:ASF I:\Acrobat_Osman\acrobat\cartwheel_test 2\Patient 1\Session 1\acrobat.ASF
:FULLY-SPECIFIED
:DEGREES
242
root 10.1902 15.5132 1.19673 193.281 -110.284 -184.938
lowerback -3.81577 6.08242 -0.555578
upperback 2.88285 8.13715 0.248767
thorax 4.99821 4.005 1.21321
lowerneck -1.88529 -12.601 -13.344
upperneck 8.45925 -17.6076 12.7353
head 5.16338 -8.64024 4.84203
rclavicle -2.79789e-014 1.35174e-014
rhumerus -7.90968 -17.5602 -24.694
rradius 30.1844
rwrist 10.9778
rhand -31.0178 30.3364
rfingers 7.12502
rthumb -4.30033 0.400087
lclavicle -2.79789e-014 1.35174e-014
lhumerus -28.4531 11.9361 4.79668
lradius 32.8592
lwrist 44.6021
lhand -19.4514 -307.99
lfingers 7.12502
lthumb 6.86945 -998.121
rfemur -4.0115 7.75716 8.93398
rtibia 16.9202
rfoot -44.1119 -43.8289
rtoes 23.2966
lfemur -26.3548 -3.70906 -5.13177
ltibia 36.5657
lfoot -16.8519 2.60394
ltoes -22.0108
243
root 10.1918 15.5267 1.15691 192.951 -107.126 -184.38
lowerback -3.92704 5.15758 -1.54589
upperback 2.86581 6.96564 0.206277
thorax 4.95011 3.39113 1.62636
lowerneck -1.3756 -12.9715 -13.5446
upperneck 8.05091 -18.1597 12.9882
head 5.06967 -8.93331 4.92359
rclavicle 9.64106e-015 1.72943e-014
rhumerus -10.3179 -17.2088 -22.5996
rradius 30.535
rwrist 9.58039
rhand -31.6176 31.5039
rfingers 7.12502
rthumb -4.87949 1.58006
lclavicle 9.64106e-015 1.72943e-014
lhumerus -26.2979 12.6175 5.34504
lradius 33.6266
lwrist 46.2522
lhand -21.0793 -307.775
lfingers 7.12502
lthumb 5.29781 -997.861
rfemur -5.30596 8.43267 7.89826
rtibia 16.9907
rfoot -41.4753 -43.1741
rtoes 21.6671
lfemur -25.0228 -1.8417 -5.7158
ltibia 35.7685
lfoot -16.7663 3.58946
ltoes -22.0501
244
root 10.1928 15.5345 1.11205 192.445 -103.942 -183.734
lowerback -3.95522 4.2968 -2.35905
upperback 2.81239 5.87006 0.113088
thorax 4.87506 2.82302 1.89432
lowerneck -1.06173 -13.2554 -13.5408
upperneck 7.86766 -18.5841 13.0663
head 5.02593 -9.15497 4.92169
rclavicle -5.73121e-014 1.30701e-014
rhumerus -13.0556 -16.5328 -20.5592
rradius 31.2255
rwrist 7.58797
rhand -31.8022 31.2534
rfingers 7.12502
rthumb -5.0577 1.33372
lclavicle -5.73121e-014 1.30701e-014
lhumerus -23.7417 13.7421 5.87991
lradius 33.4359
lwrist 46.3412
lhand -19.8857 -310.322
lfingers 7.12502
lthumb 6.45018 -1000.44
rfemur -6.54048 9.00685 6.8845
rtibia 17.0444
rfoot -38.1754 -42.2272
rtoes 19.235
lfemur -23.6414 0.0655685 -6.24969
ltibia 34.9969
lfoot -16.6308 4.66666
ltoes -22.599
245
root 10.1897 15.5389 1.07165 192.336 -100.825 -183.571
lowerback -4.04239 3.22415 -3.02071
upperback 2.74756 4.4729 0.283446
thorax 4.8563 2.10557 2.33769
lowerneck -0.820815 -13.2382 -14.1786
upperneck 7.90229 -18.5936 13.1904
head 5.07003 -9.18327 5.06016
rclavicle 5.28394e-014 -8.92046e-015
rhumerus -14.8246 -16.9867 -18.8259
rradius 31.4855
rwrist 7.20742
rhand -31.9186 31.1238
rfingers 7.12502
rthumb -5.17015 1.20685
lclavicle 5.28394e-014 -8.92046e-015
lhumerus -21.943 15.7997 6.77363
lradius 33.155
lwrist 45.7496
lhand -20.1513 -309.902
lfingers 7.12502
lthumb 6.19377 -1000.01
rfemur -7.72857 8.94939 6.06401
rtibia 17.0925
rfoot -34.6237 -40.5847
rtoes 16.9001
lfemur -22.2006 1.74293 -6.59349
ltibia 34.2473
lfoot -16.5347 6.02233
ltoes -23.7252
246
root 10.1815 15.5433 1.0336 193.299 -97.5877 -184.53
lowerback -4.16012 2.07948 -3.53841
upperback 2.67437 2.96721 0.576311
thorax 4.8955 1.33634 2.82226
lowerneck -0.701089 -13.0257 -14.8974
upperneck 7.98654 -18.3272 13.3216
head 5.11837 -9.07388 5.23679
rclavicle -5.81678e-015 1.75738e-014
rhumerus -16.225 -17.3569 -17.3386
rradius 31.8224
rwrist 7.1127
rhand -31.7726 31.2528
rfingers 7.12502
rthumb -5.02918 1.33245
lclavicle -5.81678e-015 1.75738e-014
lhumerus -20.687 16.382 8.1303
lradius 33.5153
lwrist 46.5822
lhand -22.0865 -309.443
lfingers 7.12502
lthumb 4.32529 -999.507
rfemur -8.98954 8.63313 5.46572
rtibia 17.1688
rfoot -30.6303 -38.9941
rtoes 13.4744
lfemur -20.6281 3.37849 -6.76619
ltibia 33.4723
lfoot -16.542 7.48142
ltoes -24.5985
247
root 10.1715 15.5481 0.991556 195.404 -94.2318 -186.673
lowerback -4.20397 1.14886 -3.94115
upperback 2.62131 1.74481 0.706986
thorax 4.93988 0.713862 3.09016
lowerneck -0.696531 -12.9333 -14.9642
upperneck 8.01701 -18.2046 13.2491
head 5.10813 -9.02036 5.23883
rclavicle -4.87644e-015 -2.90723e-015
rhumerus -18.4157 -16.9888 -15.7846
rradius 32.4761
rwrist 6.18649
rhand -31.5701 30.8781
rfingers 7.12502
rthumb -4.83365 0.953202
lclavicle -4.87644e-015 -2.90723e-015
lhumerus -18.9818 17.1885 9.81452
lradius 33.3412
lwrist 45.4411
lhand -18.4292 -309.622
lfingers 7.12502
lthumb 7.85612 -999.788
rfemur -10.3426 8.52472 4.95711
rtibia 17.321
rfoot -26.0607 -37.8919
rtoes 8.15799
lfemur -18.9199 4.84166 -6.95183
ltibia 32.6247
lfoot -16.4029 9.10406
ltoes -24.6252
